<?xml version="1.0" standalone="no"?>
<!DOCTYPE svg PUBLIC "-//W3C//DTD SVG 20010904//EN"
 "http://www.w3.org/TR/2001/REC-SVG-20010904/DTD/svg10.dtd">
<svg version="1.0" xmlns="http://www.w3.org/2000/svg"
 width="2500.000000pt" height="2500.000000pt" viewBox="0 0 2500.000000 2500.000000"
 preserveAspectRatio="xMidYMid meet">

<g transform="translate(0.000000,2500.000000) scale(0.100000,-0.100000)"
fill="#000000" stroke="none">
<path d="M12080 24993 c-2576 -96 -4982 -939 -7030 -2462 -506 -377 -896 -716
-1381 -1200 -483 -483 -815 -864 -1189 -1366 -1847 -2476 -2701 -5497 -2429
-8590 182 -2078 879 -4061 2034 -5790 481 -720 946 -1286 1570 -1911 421 -422
772 -733 1200 -1065 875 -679 1836 -1237 2861 -1664 979 -408 2086 -703 3154
-839 3579 -459 7106 598 9805 2938 1594 1381 2815 3134 3540 5081 333 895 560
1811 679 2745 344 2684 -165 5372 -1457 7692 -455 816 -979 1551 -1622 2273
-179 201 -691 719 -890 901 -2105 1915 -4714 3034 -7545 3234 -363 25 -955 36
-1300 23z m1080 -443 c1985 -110 3862 -684 5547 -1696 1637 -983 3054 -2382
4067 -4017 994 -1603 1595 -3429 1750 -5317 41 -496 53 -1222 28 -1655 -101
-1700 -499 -3217 -1232 -4700 -498 -1008 -1100 -1893 -1874 -2755 -155 -173
-640 -661 -816 -821 -1986 -1806 -4454 -2887 -7115 -3114 -640 -54 -1377 -54
-2035 1 -3258 270 -6246 1847 -8330 4394 -1539 1882 -2451 4121 -2670 6557
-59 659 -61 1431 -5 2098 237 2806 1426 5399 3403 7416 1662 1697 3727 2843
6031 3348 720 159 1418 243 2266 275 153 6 790 -3 985 -14z"/>
<path d="M11980 24060 c-2105 -101 -4089 -743 -5830 -1888 -1455 -956 -2681
-2234 -3579 -3730 -1368 -2279 -1903 -4962 -1520 -7617 399 -2763 1802 -5301
3939 -7126 1672 -1427 3692 -2340 5870 -2653 575 -82 991 -110 1640 -110 500
0 669 7 1077 44 2998 277 5762 1713 7724 4010 2078 2434 3048 5593 2698 8790
-339 3106 -1934 5945 -4424 7875 -1732 1342 -3821 2166 -5995 2364 -124 12
-295 26 -380 31 -210 15 -991 21 -1220 10z m154 -1693 c225 -589 412 -1076
416 -1080 4 -5 14 9 22 30 9 21 194 507 413 1081 l398 1042 459 0 458 0 0
-1525 0 -1525 -305 0 -305 0 -2 1059 -3 1060 -399 -1060 -400 -1059 -332 0
-331 0 -90 238 c-50 130 -229 606 -399 1056 l-309 819 -3 -1057 -2 -1056 -305
0 -305 0 0 1525 0 1525 458 0 457 0 409 -1073z m7590 -1560 c119 -147 216
-271 216 -277 0 -5 -262 -352 -583 -772 -321 -420 -587 -769 -591 -775 -10
-17 -86 -49 904 377 476 205 875 376 887 381 21 8 45 -19 273 -301 137 -170
250 -311 250 -315 0 -3 -255 -366 -566 -806 -311 -441 -564 -803 -561 -805 2
-2 397 183 877 411 481 228 879 415 885 414 12 0 460 -556 460 -571 0 -9
-2767 -1358 -2786 -1358 -14 0 -551 681 -546 693 2 6 249 369 547 805 298 436
540 795 537 798 -2 3 -387 -153 -854 -345 -468 -193 -873 -359 -900 -370 l-50
-19 -277 339 c-153 187 -276 344 -274 348 2 5 430 558 953 1230 896 1153 950
1220 966 1204 9 -10 114 -138 233 -286z m-14239 -152 c39 -8 102 -31 140 -50
83 -42 232 -163 296 -240 61 -75 167 -251 185 -311 26 -82 29 -246 7 -331 -11
-40 -19 -73 -18 -73 1 0 40 18 87 40 209 98 443 107 639 25 226 -95 434 -335
490 -565 18 -74 15 -230 -5 -313 -34 -144 -122 -311 -244 -462 -64 -80 -1556
-1861 -1582 -1888 -16 -17 -74 31 -1181 959 -640 537 -1166 978 -1167 979 -6
6 1501 1798 1587 1887 141 147 289 254 434 312 113 45 217 55 332 31z m7635
-790 c707 -63 1347 -207 1985 -447 2382 -896 4154 -2985 4644 -5478 101 -512
136 -891 135 -1455 -1 -406 -12 -604 -54 -932 -208 -1615 -941 -3109 -2093
-4265 -1091 -1096 -2479 -1817 -3988 -2072 -443 -75 -751 -100 -1239 -101
-456 0 -688 16 -1102 76 -1317 190 -2609 770 -3641 1634 -1389 1163 -2299
2771 -2571 4545 -53 348 -74 601 -83 985 -32 1536 410 3030 1275 4300 729
1070 1737 1940 2899 2502 873 421 1806 663 2793 723 211 13 832 4 1040 -15z"/>
<path d="M5068 19841 c-81 -27 -108 -55 -564 -599 -381 -454 -454 -546 -443
-557 64 -59 533 -445 539 -443 21 8 898 1065 922 1111 91 173 -7 390 -214 469
-58 22 -196 33 -240 19z"/>
<path d="M6071 19111 c-29 -11 -68 -32 -86 -46 -32 -24 -986 -1152 -985 -1164
1 -3 130 -114 287 -245 208 -174 289 -237 299 -230 8 5 223 259 479 564 294
350 476 575 493 610 23 47 27 67 27 140 0 75 -4 93 -32 152 -42 89 -110 160
-191 200 -85 42 -207 50 -291 19z"/>
<path d="M12260 19410 c-1050 -34 -2089 -312 -3015 -808 -906 -485 -1710
-1182 -2323 -2014 -836 -1135 -1311 -2538 -1335 -3946 l-2 -142 3458 0 3457 0
0 -3459 0 -3459 38 4 c20 2 129 6 242 8 981 24 2052 312 2955 793 903 482
1687 1153 2299 1968 397 528 733 1147 962 1772 249 681 392 1422 412 2136 l7
237 -3457 0 -3458 0 0 3460 c0 1903 -3 3459 -7 3458 -5 -1 -109 -5 -233 -8z"/>
</g>
</svg>
