<?xml version="1.0" standalone="no"?>
<!DOCTYPE svg PUBLIC "-//W3C//DTD SVG 20010904//EN"
 "http://www.w3.org/TR/2001/REC-SVG-20010904/DTD/svg10.dtd">
<svg version="1.0" xmlns="http://www.w3.org/2000/svg"
 width="2500.000000pt" height="2500.000000pt" viewBox="0 0 2500.000000 2500.000000"
 preserveAspectRatio="xMidYMid meet">

<g transform="translate(0.000000,2500.000000) scale(0.100000,-0.100000)"
fill="#000000" stroke="none">
<path d="M2110 18415 l0 -1895 1265 0 1265 0 0 630 0 630 3035 0 3035 0 0
-1780 0 -1780 -1205 0 -1205 0 0 500 0 500 -1265 0 -1265 0 0 -2490 0 -2490
1265 0 1265 0 0 500 0 500 1205 0 1205 0 0 -2010 0 -2010 -3035 0 -3035 0 0
630 0 630 -1265 0 -1265 0 0 -1895 0 -1895 8198 3 8197 3 165 21 c447 59 813
151 1190 298 964 376 1781 1062 2335 1960 106 172 283 524 354 705 347 879
431 1808 246 2725 -172 854 -588 1664 -1178 2293 -68 73 -76 86 -65 100 7 10
43 53 79 97 490 593 832 1340 963 2100 42 246 57 406 63 670 7 284 -5 489 -43
755 -208 1462 -1121 2735 -2444 3405 -481 243 -953 384 -1545 462 -121 16
-672 17 -8322 20 l-8193 3 0 -1895z m16420 -668 c317 -71 551 -182 772 -367
285 -238 477 -573 565 -985 25 -122 27 -146 28 -380 0 -262 -5 -313 -51 -496
-88 -356 -280 -672 -537 -888 -282 -236 -625 -370 -1027 -401 -86 -6 -877 -10
-2182 -10 l-2048 0 0 1780 0 1780 2178 -3 2177 -3 125 -27z m-258 -6517 c512
-33 937 -208 1263 -522 297 -285 478 -629 562 -1068 31 -163 43 -487 24 -660
-45 -412 -197 -787 -442 -1086 -80 -99 -229 -237 -340 -317 -182 -130 -471
-256 -701 -306 -244 -53 -164 -51 -2459 -51 l-2129 0 0 2010 0 2010 2033 0
c1246 0 2093 -4 2189 -10z"/>
</g>
</svg>
