<?xml version="1.0" standalone="no"?>
<!DOCTYPE svg PUBLIC "-//W3C//DTD SVG 20010904//EN"
 "http://www.w3.org/TR/2001/REC-SVG-20010904/DTD/svg10.dtd">
<svg version="1.0" xmlns="http://www.w3.org/2000/svg"
 width="2500.000000pt" height="2500.000000pt" viewBox="0 0 2500.000000 2500.000000"
 preserveAspectRatio="xMidYMid meet">

<g transform="translate(0.000000,2500.000000) scale(0.100000,-0.100000)"
fill="#000000" stroke="none">
<path d="M11777 24467 c-90 -149 -105 -181 -111 -231 l-6 -58 49 -63 c41 -51
50 -71 52 -109 3 -39 -1 -50 -25 -75 -27 -28 -33 -29 -139 -36 l-112 -7 -199
56 c-110 31 -292 77 -405 102 -183 40 -215 44 -291 39 -87 -6 -410 -65 -410
-75 0 -3 10 -32 23 -64 l22 -59 105 2 c58 1 111 -2 118 -7 8 -5 10 -19 6 -39
-5 -26 -13 -33 -46 -41 -26 -7 -61 -7 -102 -1 -68 11 -165 -6 -332 -56 -45
-14 -104 -25 -131 -25 -39 0 -54 -5 -70 -22 -34 -38 -35 -46 -11 -88 20 -34
30 -41 75 -51 48 -11 58 -10 125 15 118 44 144 48 273 41 84 -5 144 -14 200
-32 44 -13 118 -33 165 -44 114 -27 355 -134 369 -165 15 -35 -11 -58 -106
-94 -45 -17 -117 -54 -160 -82 -43 -28 -125 -76 -183 -106 -58 -31 -164 -97
-235 -148 -95 -66 -173 -111 -280 -161 -83 -38 -202 -103 -265 -144 -138 -89
-270 -149 -405 -182 -83 -21 -135 -26 -305 -31 -113 -4 -228 -12 -257 -18 -51
-11 -52 -12 -82 -77 -17 -37 -40 -93 -51 -126 -23 -66 -49 -113 -130 -235 -31
-47 -79 -123 -105 -170 -27 -47 -67 -107 -89 -134 l-41 -50 2 -215 3 -216 47
-43 c85 -76 129 -97 198 -94 81 4 346 80 533 154 131 51 158 59 193 53 77 -13
71 -89 -11 -130 -67 -34 -244 -99 -380 -141 -63 -19 -118 -40 -122 -47 -22
-31 -36 -65 -41 -98 -5 -33 -1 -41 34 -75 l39 -38 188 -4 c241 -5 302 6 459
89 97 52 130 63 240 86 113 22 133 24 173 13 25 -7 102 -13 171 -14 126 -2
127 -2 199 -40 59 -30 88 -39 159 -46 47 -5 138 -25 201 -45 146 -45 228 -52
341 -31 71 13 107 14 207 6 155 -12 205 -31 238 -89 29 -52 30 -76 4 -223 -14
-83 -50 -202 -134 -448 -196 -573 -233 -662 -343 -835 -53 -82 -151 -220 -218
-305 -67 -85 -166 -216 -220 -290 -110 -154 -307 -359 -505 -529 -69 -59 -162
-145 -206 -191 l-82 -85 -42 -139 c-40 -131 -46 -145 -100 -208 -31 -37 -90
-91 -131 -120 -41 -28 -112 -84 -159 -123 -97 -82 -308 -214 -485 -303 -115
-58 -123 -64 -201 -154 -44 -51 -100 -119 -124 -151 -46 -62 -102 -102 -222
-163 -69 -35 -75 -36 -120 -25 -71 16 -230 93 -348 170 -58 37 -170 96 -250
131 -80 34 -227 106 -327 158 -196 103 -268 155 -633 455 l-185 151 -130 49
c-81 31 -177 58 -253 72 l-123 23 -152 -32 c-173 -36 -223 -59 -433 -199 -114
-76 -121 -83 -143 -136 -64 -153 -135 -355 -171 -486 -22 -80 -57 -179 -77
-218 -20 -40 -58 -137 -84 -216 -47 -139 -48 -148 -55 -300 -7 -150 -9 -160
-44 -246 -38 -90 -115 -347 -165 -543 -18 -74 -47 -146 -99 -250 -90 -182
-136 -338 -165 -568 -21 -157 -23 -164 -90 -321 -38 -88 -81 -184 -96 -212
-23 -47 -27 -69 -35 -214 -5 -89 -9 -290 -10 -447 0 -276 -1 -288 -26 -380
-25 -92 -26 -98 -13 -180 8 -52 12 -141 10 -230 l-3 -146 47 -111 c41 -97 52
-114 91 -141 l43 -31 71 24 c52 18 88 39 132 77 90 77 239 262 332 411 70 111
88 149 116 243 l32 110 -106 425 c-126 507 -146 612 -146 769 0 148 23 266 95
481 60 180 119 286 200 361 26 23 65 69 87 100 35 53 42 58 76 58 65 1 111 17
165 58 75 59 238 220 271 269 39 58 106 314 107 408 0 108 28 213 69 268 56
74 111 74 253 -1 82 -42 181 -149 290 -312 188 -282 513 -593 717 -687 76 -35
87 -44 104 -81 36 -79 10 -92 -122 -64 -54 12 -142 24 -197 28 -59 3 -237 33
-430 71 -317 63 -338 66 -525 72 -107 3 -247 4 -310 1 l-116 -6 -89 -54 c-49
-30 -130 -92 -180 -136 -81 -72 -101 -97 -164 -206 -40 -67 -100 -188 -133
-268 l-60 -145 -5 -125 c-7 -181 33 -402 133 -729 46 -153 87 -313 110 -430
19 -102 71 -330 115 -506 47 -186 87 -370 95 -440 10 -75 32 -175 59 -265 31
-101 53 -207 75 -350 41 -275 67 -340 160 -413 223 -175 372 -373 474 -631 49
-124 75 -173 152 -285 77 -113 115 -157 226 -262 88 -83 165 -146 228 -185 89
-55 100 -59 165 -62 42 -2 90 2 120 10 l50 15 73 144 c106 206 122 279 122
538 0 197 0 199 -29 262 -16 35 -34 95 -39 133 -15 92 -54 156 -174 280 l-96
101 -159 67 c-87 37 -177 72 -199 79 l-41 11 -7 61 c-3 33 -6 100 -6 148 l0
89 -99 113 c-95 109 -101 118 -164 267 -71 166 -104 283 -202 722 -50 227 -56
244 -125 389 -72 151 -72 153 -96 313 -13 89 -23 177 -23 196 0 19 17 78 37
130 l37 95 75 43 c59 33 85 42 122 42 45 0 52 -4 135 -77 118 -104 313 -219
466 -274 140 -50 707 -325 892 -431 l130 -76 3 -80 3 -80 137 -80 c110 -64
172 -91 315 -141 l179 -61 354 0 c195 0 354 -3 354 -7 0 -5 -16 -49 -36 -100
l-36 -91 53 -99 c114 -211 208 -334 414 -543 106 -107 251 -259 321 -337 169
-186 356 -350 700 -615 l282 -217 378 -201 c291 -155 428 -235 589 -343 355
-238 672 -469 842 -614 l162 -138 179 -243 179 -242 7 -99 c6 -83 15 -118 50
-208 l42 -108 112 -82 c87 -63 136 -91 218 -122 101 -39 107 -41 171 -31 63 9
69 12 130 72 36 35 91 93 123 129 59 65 59 66 75 165 16 93 22 107 100 244 83
143 84 147 104 265 11 66 29 217 41 335 18 186 24 223 48 274 22 49 34 62 74
82 31 16 64 24 98 24 49 0 50 0 50 -31 0 -21 -12 -46 -38 -78 -24 -28 -51 -79
-70 -131 -16 -47 -43 -114 -59 -150 -29 -63 -30 -71 -36 -275 -10 -308 -23
-343 -272 -745 -32 -52 -106 -181 -165 -285 l-106 -191 -52 -206 c-38 -153
-59 -264 -79 -424 l-27 -216 27 -252 c48 -440 65 -488 453 -1289 229 -473 345
-666 562 -932 132 -163 192 -261 192 -312 0 -39 -40 -135 -90 -218 -128 -212
-452 -625 -713 -908 -112 -122 -244 -266 -293 -320 -104 -114 -164 -153 -338
-218 -111 -41 -124 -49 -198 -118 -64 -60 -85 -88 -113 -149 -54 -117 -242
-342 -561 -672 -150 -156 -239 -308 -312 -532 -75 -229 -96 -336 -88 -440 l7
-84 56 -62 55 -62 189 0 c104 0 233 5 287 11 90 10 103 14 178 60 45 27 137
75 205 108 117 55 125 61 141 100 15 37 20 41 52 41 66 0 159 47 225 114 l60
61 31 211 c30 201 30 214 15 250 -9 21 -20 56 -24 76 -10 43 -5 45 64 24 40
-12 40 -12 141 56 107 70 145 114 312 351 72 102 137 253 147 342 3 33 8 69
10 81 5 25 47 54 220 154 l130 75 55 108 c64 123 110 174 440 481 205 191 370
310 620 447 149 81 218 138 239 196 8 21 29 56 47 78 l32 40 -23 55 c-16 40
-24 84 -28 160 -14 246 -90 431 -267 650 -42 52 -96 129 -118 171 -49 88 -61
157 -62 335 0 108 2 118 65 335 54 185 74 238 113 301 46 77 47 78 195 169
118 72 201 136 395 301 136 116 289 251 341 302 86 84 545 599 603 677 46 62
280 491 350 641 40 87 86 210 113 300 41 137 48 175 65 362 11 115 20 226 20
246 0 28 8 43 38 72 115 111 210 10 232 -249 6 -65 16 -154 23 -198 10 -65 10
-96 0 -165 -7 -47 -16 -216 -19 -376 -6 -284 -6 -296 21 -475 26 -173 30 -187
62 -231 30 -41 40 -48 69 -48 30 0 36 5 50 38 14 34 14 43 0 107 -10 45 -16
116 -16 197 0 119 2 133 34 225 26 72 39 135 51 238 24 208 43 313 67 378 20
50 26 57 50 57 39 0 51 -24 92 -197 35 -145 37 -158 31 -265 -4 -62 -20 -199
-36 -303 l-29 -191 -86 -179 c-164 -340 -224 -478 -271 -619 l-47 -141 1 -175
c0 -173 1 -176 35 -275 l35 -100 62 -3 c69 -3 76 0 115 57 27 38 27 39 11 77
-9 22 -23 76 -31 122 l-15 83 109 147 c59 81 131 191 160 244 29 53 91 159
139 235 48 76 124 204 170 285 81 143 83 151 118 305 20 87 49 245 65 352 27
171 30 220 30 415 l0 221 -39 137 c-37 131 -41 140 -119 250 -61 87 -82 124
-87 159 -7 44 -6 46 23 58 26 11 35 10 68 -7 56 -29 139 -137 221 -287 69
-126 72 -135 102 -285 16 -85 37 -240 47 -345 14 -169 21 -204 56 -315 22 -69
59 -165 82 -215 24 -49 56 -121 72 -159 29 -69 42 -80 104 -93 22 -4 28 1 46
39 l22 44 -36 114 -36 115 0 265 c-1 244 1 278 27 427 29 174 34 291 16 406
-9 56 -28 105 -86 222 -42 82 -100 192 -130 242 l-55 92 19 32 c16 29 27 34
99 50 44 9 135 42 201 72 375 170 501 269 728 573 122 164 158 221 229 362 46
92 112 232 146 310 l62 144 23 261 c36 395 35 627 -5 937 -17 135 -51 340 -75
455 -64 311 -111 595 -134 816 -20 196 -20 196 -1 340 11 79 35 212 53 294 45
201 135 401 287 640 117 183 183 333 196 447 6 54 5 59 -30 107 -27 36 -52 57
-93 75 -30 15 -57 26 -59 26 -2 0 -4 -36 -4 -80 l0 -81 -47 -57 c-27 -32 -75
-99 -108 -149 -39 -59 -73 -99 -98 -115 -46 -28 -243 -264 -312 -373 -27 -45
-72 -131 -98 -192 l-49 -111 -53 -7 c-47 -5 -59 -3 -97 21 -24 15 -44 28 -45
29 -2 1 -17 63 -34 139 l-31 137 11 172 c8 137 17 200 44 309 40 163 46 174
361 648 182 274 222 343 312 529 l104 213 13 152 c13 143 13 154 -6 209 -10
31 -22 57 -26 57 -4 0 -23 -17 -43 -37 -25 -27 -50 -77 -87 -168 -29 -75 -84
-185 -129 -260 -74 -124 -83 -134 -187 -220 -192 -158 -401 -368 -608 -611
-184 -215 -202 -234 -232 -234 -28 0 -33 4 -43 38 -20 67 -24 241 -9 422 14
167 17 184 75 370 50 159 81 237 170 420 109 225 109 225 256 406 131 164 164
197 329 338 167 143 217 197 217 236 0 5 -13 18 -28 29 l-29 20 -109 -57
c-184 -97 -255 -151 -657 -509 -139 -123 -171 -158 -271 -294 -158 -214 -322
-514 -404 -739 -55 -153 -61 -176 -76 -317 -9 -84 -21 -255 -27 -380 l-10
-228 52 -225 c81 -355 151 -610 263 -955 l104 -320 66 -375 c36 -206 83 -506
106 -665 47 -341 51 -469 20 -747 -25 -233 -60 -404 -119 -581 l-49 -144 -190
-239 c-173 -216 -209 -255 -373 -404 l-183 -165 -242 -136 -242 -135 -222 -13
c-123 -7 -226 -9 -230 -4 -4 4 -19 54 -34 110 -56 212 -243 523 -526 873 -42
52 -118 151 -168 220 -148 202 -555 575 -1047 961 -61 47 -245 178 -410 289
-307 208 -292 196 -988 779 l-198 166 -238 296 -239 295 -260 427 -261 426
-71 256 -71 255 17 153 c15 137 19 155 42 180 14 15 30 27 34 27 5 0 50 -28
100 -62 51 -34 157 -92 237 -130 l145 -69 116 6 115 7 140 -65 c164 -76 404
-220 507 -305 40 -33 116 -89 169 -125 l95 -66 108 -14 107 -14 29 58 29 57
-35 6 c-20 4 -49 2 -68 -5 -31 -11 -38 -10 -78 16 -48 30 -55 40 -171 230 -43
72 -92 141 -107 155 -15 14 -71 65 -123 113 -91 84 -102 91 -211 132 -63 24
-142 49 -176 56 -53 10 -61 14 -58 33 3 19 10 21 93 24 81 2 101 -1 194 -33
85 -28 134 -54 265 -139 89 -57 178 -111 199 -120 20 -9 52 -23 70 -30 l34
-15 32 45 32 46 -50 66 c-27 37 -103 115 -169 174 -111 99 -132 113 -313 207
-115 59 -282 134 -411 185 -119 46 -233 97 -254 112 l-36 28 28 23 c16 13 32
23 36 23 4 0 51 -21 105 -46 87 -41 119 -49 288 -78 181 -31 200 -37 393 -115
112 -45 247 -104 301 -131 96 -48 104 -50 286 -75 187 -27 187 -27 313 -10
149 20 209 43 384 148 143 86 204 145 214 204 l6 42 -53 -5 c-47 -5 -59 -11
-89 -45 -31 -34 -53 -45 -167 -83 -123 -41 -291 -76 -368 -76 -19 0 -68 5
-110 11 -72 11 -80 15 -163 81 -48 38 -127 116 -177 173 -63 73 -120 126 -192
178 l-101 74 -139 27 c-271 54 -562 168 -563 221 0 20 5 21 213 20 273 0 642
13 735 26 72 10 73 10 109 -18 19 -15 47 -37 60 -47 36 -27 205 -66 289 -66
67 0 74 2 120 37 l48 37 -80 26 c-94 30 -179 86 -291 189 -64 59 -111 91 -211
144 l-130 67 -203 27 c-125 16 -213 32 -227 41 -24 15 -23 15 35 49 56 32 62
33 169 33 135 0 244 -29 399 -107 55 -28 159 -76 231 -107 l131 -56 146 0 147
0 72 36 c68 33 75 40 97 90 13 30 22 57 19 59 -2 2 -31 16 -63 31 -51 23 -77
28 -175 31 -98 4 -130 9 -220 39 -95 32 -113 42 -185 105 -48 42 -121 92 -185
125 -96 51 -116 58 -240 79 -78 14 -178 39 -238 60 -97 35 -105 41 -147 94
-47 58 -50 67 -36 90 7 11 21 10 82 -3 145 -33 226 -63 280 -104 49 -37 61
-41 135 -47 l82 -7 10 48 c6 27 8 52 4 55 -4 3 -41 33 -83 66 -55 45 -80 72
-91 102 l-17 42 32 -6 c147 -24 168 -30 267 -81 101 -52 109 -54 223 -65 l118
-11 49 -92 49 -91 140 -83 140 -84 64 31 c87 41 95 52 67 91 -19 27 -27 30
-73 30 -61 1 -45 -17 -203 222 -108 165 -114 171 -265 306 -150 134 -158 139
-284 196 -72 32 -142 63 -156 68 -16 5 -85 79 -171 181 -142 168 -147 173
-231 217 -80 41 -88 48 -98 83 -9 33 -8 41 8 53 10 8 28 16 39 20 36 9 395
-84 626 -163 l107 -37 57 -82 c55 -78 62 -83 151 -128 83 -41 101 -46 159 -46
41 0 103 -10 163 -27 107 -29 111 -29 231 -7 75 14 91 21 133 57 l48 42 -68
56 c-64 53 -75 58 -178 82 -60 14 -141 29 -178 33 -63 6 -73 10 -124 54 -32
27 -88 95 -132 159 -63 91 -81 126 -95 184 l-18 72 -106 94 c-75 66 -170 133
-319 226 -117 73 -230 148 -250 166 -194 169 -279 270 -227 269 11 -1 97 -63
192 -138 128 -103 216 -163 345 -237 201 -115 327 -208 487 -357 93 -87 136
-119 225 -167 61 -32 140 -68 176 -79 l66 -19 37 59 c21 33 36 61 34 63 -2 2
-24 12 -50 22 -28 11 -83 51 -136 98 l-89 80 -29 97 c-29 95 -30 98 -124 200
-52 57 -132 134 -176 172 -79 66 -82 71 -119 165 -29 73 -71 145 -178 306
l-141 210 -183 160 c-175 154 -193 174 -193 221 0 20 4 21 48 17 29 -3 81 -22
135 -49 49 -25 162 -76 251 -113 l164 -69 153 -7 153 -7 115 -54 c92 -44 137
-58 230 -75 130 -24 150 -22 274 16 l89 27 -7 46 c-4 26 -11 52 -16 58 -5 6
-60 21 -121 34 -123 26 -184 51 -538 220 -395 190 -440 217 -531 331 -25 31
-27 38 -15 54 13 18 14 18 41 -3 16 -13 59 -32 96 -43 62 -19 87 -20 266 -16
109 2 275 10 368 17 l170 12 100 -39 c71 -28 131 -62 205 -115 65 -47 124 -81
157 -90 l51 -15 6 30 c13 66 10 71 -131 206 l-138 131 -175 89 -175 89 -150
16 c-82 8 -235 20 -340 26 l-190 11 -45 52 c-132 155 -279 291 -410 382 -74
51 -155 110 -179 132 l-44 39 32 23 32 23 52 -22 c29 -12 103 -49 165 -81 143
-76 320 -139 532 -189 155 -37 178 -40 313 -40 l145 0 121 -133 c106 -118 131
-140 217 -190 53 -31 102 -57 108 -57 6 1 27 20 47 43 l36 42 -136 199 -136
200 -209 151 -208 150 -171 40 -170 40 -107 110 c-59 60 -123 129 -144 151
-22 26 -89 72 -174 122 -131 76 -144 81 -294 118 -87 21 -158 41 -158 44 0 3
38 37 84 77 l83 72 269 86 c148 48 284 92 303 98 19 7 46 29 64 54 l30 43 -17
38 -18 39 -139 32 -139 33 -497 -11 -498 -11 -100 104 c-122 127 -230 201
-415 283 -127 56 -145 62 -305 87 -125 19 -208 26 -311 26 l-141 0 -34 48
c-56 79 -302 334 -480 498 -92 85 -170 154 -172 154 -3 0 -53 -78 -110 -173z
m1364 -928 c86 -37 57 -63 -69 -61 -88 1 -129 20 -110 52 12 18 35 25 101 28
16 1 51 -8 78 -19z m133 -359 c32 -12 32 -20 5 -49 -19 -20 -28 -22 -72 -17
-87 12 -108 34 -59 60 31 18 89 20 126 6z m-1560 -150 c35 -13 35 -52 0 -79
-14 -11 -50 -25 -81 -32 -51 -12 -57 -11 -70 7 -28 38 -13 66 47 90 65 26 71
27 104 14z m-1192 -382 c37 -48 22 -69 -64 -91 -35 -9 -73 -28 -97 -48 -100
-86 -191 -128 -377 -178 -171 -46 -344 -72 -344 -52 0 20 72 67 185 122 148
72 528 247 575 265 46 19 100 10 122 -18z m749 -36 c25 -12 55 -31 66 -42 32
-29 86 -176 91 -248 l4 -62 -38 -17 c-25 -11 -64 -18 -109 -18 -60 0 -81 5
-150 38 -44 21 -117 59 -162 85 -67 38 -84 53 -96 83 -13 34 -13 41 4 78 19
43 58 82 113 114 45 27 213 20 277 -11z m2033 -211 c13 -14 17 -33 15 -68 -1
-26 -2 -63 -1 -80 2 -31 5 -33 37 -33 19 0 63 11 98 24 92 34 205 52 223 35
11 -12 10 -19 -7 -45 -15 -24 -35 -37 -87 -54 -37 -12 -116 -49 -175 -82 -129
-71 -239 -118 -277 -118 -24 0 -29 5 -35 38 -17 99 -17 147 4 194 25 60 147
208 170 208 10 0 26 -9 35 -19z m-4416 -553 c22 -18 48 -47 57 -64 17 -28 17
-34 0 -90 -9 -32 -29 -72 -43 -87 -40 -42 -120 -85 -192 -101 -73 -17 -97 -10
-106 32 -3 15 -8 33 -10 41 -9 29 37 148 81 208 73 101 139 120 213 61z m398
-24 c3 -19 2 -50 -3 -67 -7 -26 -14 -33 -40 -35 -67 -7 -100 42 -67 95 24 37
33 43 71 43 29 0 33 -4 39 -36z m2264 -319 c0 -15 -9 -31 -25 -41 -16 -11 -30
-35 -40 -68 -8 -29 -31 -78 -51 -109 -31 -50 -45 -62 -102 -88 -87 -40 -161
-58 -244 -59 -68 0 -86 8 -71 34 17 30 498 356 525 356 4 0 8 -11 8 -25z
m2158 -51 c3 -26 -2 -33 -30 -48 -66 -36 -103 4 -53 58 36 39 79 34 83 -10z
m-4021 -46 c16 -21 21 -54 11 -72 -10 -19 -59 -21 -76 -4 -13 13 -17 70 -5 81
11 12 60 8 70 -5z m2504 -38 c22 -12 24 -41 8 -105 -19 -76 -148 -181 -259
-210 -103 -27 -116 7 -42 106 84 111 212 218 260 219 7 0 22 -5 33 -10z m1611
-147 c8 -34 -7 -65 -43 -86 -46 -27 -69 -18 -69 27 0 25 7 40 26 55 33 26 80
28 86 4z m-1328 -179 c18 -7 21 -58 6 -99 -20 -54 -93 -126 -160 -160 -148
-75 -185 -85 -301 -85 -59 0 -110 4 -114 9 -16 27 22 59 143 118 70 34 159 83
197 109 81 55 185 113 202 114 6 0 18 -3 27 -6z m1340 -114 c32 -12 35 -51 7
-79 -37 -37 -170 -49 -157 -14 3 8 6 19 6 24 0 8 98 77 112 78 4 1 18 -3 32
-9z m-24 -308 c0 -45 -100 -91 -135 -62 -42 35 6 79 88 80 39 0 47 -3 47 -18z
m15 -274 c22 -10 25 -17 25 -63 0 -58 -15 -78 -85 -112 -62 -30 -115 -7 -115
49 0 23 4 28 24 28 30 0 41 14 55 68 10 37 15 42 41 42 16 0 41 -5 55 -12z
m23 -415 c5 -47 -13 -72 -72 -99 -45 -20 -58 -22 -85 -13 -20 7 -33 20 -38 37
-15 59 57 115 142 110 48 -3 50 -4 53 -35z m-1834 -118 c13 -19 15 -38 10 -78
-19 -159 -131 -462 -235 -634 -39 -65 -111 -191 -159 -281 -117 -215 -321
-503 -458 -644 -92 -95 -112 -110 -171 -133 -73 -28 -87 -30 -96 -15 -10 17
38 110 125 245 45 70 119 202 163 293 178 367 415 816 515 977 110 178 196
281 241 288 14 2 31 5 37 6 7 0 19 -10 28 -24z m1812 -210 c19 -50 -97 -136
-159 -118 -57 16 -43 90 21 117 49 20 131 21 138 1z m8 -281 c36 -14 4 -75
-56 -105 -53 -27 -156 -36 -183 -15 -30 22 -11 45 74 89 71 36 126 46 165 31z
m-24 -339 c32 -16 45 -45 36 -79 -8 -33 -119 -70 -188 -64 -102 10 -96 77 12
134 52 27 99 30 140 9z m-87 -313 c9 -8 17 -25 17 -37 0 -38 -31 -61 -98 -74
-80 -15 -118 -1 -115 44 6 74 136 119 196 67z m-75 -374 c2 -19 -7 -42 -29
-72 -35 -50 -38 -52 -101 -61 -53 -8 -108 14 -108 43 0 49 125 123 200 119 30
-2 35 -6 38 -29z m-158 -386 c57 -46 -23 -106 -110 -82 -77 21 -29 98 61 100
15 0 37 -8 49 -18z m-58 -328 c11 -24 9 -29 -15 -50 -37 -31 -111 -34 -127 -5
-5 11 -10 27 -10 35 0 22 49 45 98 46 36 0 44 -4 54 -26z m-112 -332 c22 -18
22 -19 5 -46 -16 -24 -23 -27 -64 -24 -42 3 -46 5 -49 31 -2 16 2 35 9 43 16
20 72 18 99 -4z m-7512 -118 c44 -30 17 -88 -54 -116 -66 -26 -162 -38 -194
-24 -32 14 -40 25 -40 59 0 42 49 85 103 90 105 9 163 7 185 -9z m4965 -60
c101 -23 231 -91 290 -152 45 -45 48 -52 45 -93 l-3 -44 -50 -3 c-35 -2 -87 8
-170 33 -158 47 -277 59 -505 52 -186 -6 -291 -19 -423 -56 -180 -50 -267 -48
-267 7 0 60 70 98 342 183 255 80 571 111 741 73z m2439 -81 c22 -20 23 -49 2
-57 -27 -10 -89 -7 -102 6 -45 45 52 95 100 51z m-7932 -532 c26 -49 4 -170
-81 -442 -22 -71 -45 -118 -87 -180 -63 -93 -96 -112 -108 -63 -11 42 3 208
29 339 21 109 29 130 79 215 69 117 92 139 150 149 4 0 12 -8 18 -18z m1251
-447 c29 -25 73 -59 98 -74 48 -30 121 -116 121 -143 0 -30 -18 -27 -91 15
-97 56 -229 183 -229 221 0 43 40 36 101 -19z m5226 20 c13 -8 23 -27 27 -51
32 -219 14 -263 -112 -263 -92 0 -123 13 -165 70 -47 63 -49 102 -8 154 81
102 182 137 258 90z m-3732 -240 c32 -13 35 -49 15 -161 -12 -66 -45 -178 -84
-288 -35 -99 -76 -220 -92 -270 -24 -79 -36 -101 -103 -184 -87 -108 -156
-167 -207 -177 -68 -13 -88 49 -33 102 80 76 180 295 247 541 36 133 61 203
93 260 74 136 96 164 146 182 1 1 9 -2 18 -5z m4763 -868 c47 -24 48 -25 79
-122 18 -55 44 -153 57 -219 14 -66 47 -178 73 -250 41 -108 69 -161 167 -315
262 -409 494 -737 800 -1129 6 -7 -43 14 -109 47 -118 59 -123 63 -314 249
-240 232 -418 450 -571 698 -88 144 -117 202 -187 380 -56 141 -95 259 -119
357 l-36 148 16 77 c9 42 17 77 19 78 1 1 18 6 37 12 19 6 36 11 38 12 1 1 24
-10 50 -23z m-7580 -273 c4 -36 -55 -168 -87 -197 -29 -27 -51 -14 -51 30 0
34 33 105 83 177 25 36 51 32 55 -10z m1395 -836 c18 -8 66 -22 107 -32 41
-10 104 -32 140 -50 36 -18 124 -58 195 -90 150 -66 185 -93 185 -143 l0 -35
-74 6 c-88 6 -132 26 -274 122 -213 144 -254 171 -304 202 -41 25 -48 32 -30
33 12 0 37 -6 55 -13z m-1326 -599 c17 -22 33 -104 33 -166 0 -44 13 -99 54
-223 91 -274 133 -610 69 -557 -19 16 -118 222 -149 313 -58 168 -79 376 -53
548 12 85 15 97 27 97 5 0 14 -6 19 -12z m14701 -578 c49 -153 83 -296 112
-467 17 -99 20 -165 20 -409 0 -268 -2 -302 -25 -426 -52 -283 -176 -590 -318
-787 -97 -137 -257 -320 -364 -418 -78 -72 -107 -92 -145 -101 -111 -28 -129
30 -54 177 24 48 101 165 173 261 145 196 309 452 382 599 89 176 146 433 156
696 10 274 8 316 -25 654 l-30 314 22 24 c38 41 49 27 96 -117z m-15611 74
c46 -13 29 -84 -21 -84 -27 0 -40 9 -55 37 -10 20 -8 24 16 37 33 18 31 17 60
10z m5580 -717 c82 -50 299 -269 440 -444 139 -172 331 -368 543 -552 602
-524 829 -741 777 -741 -19 0 -215 127 -659 426 -397 267 -482 330 -653 484
-66 59 -145 127 -175 150 -84 65 -337 318 -379 380 -63 91 -87 274 -43 323 24
27 78 17 149 -26z m3946 -633 c26 -37 33 -58 37 -112 6 -86 -8 -122 -75 -193
-52 -54 -125 -181 -125 -217 0 -9 -7 -28 -16 -41 -13 -18 -22 -22 -47 -17 -54
11 -60 22 -52 106 15 159 84 448 117 488 17 20 47 31 91 31 33 1 41 -4 70 -45z
m-7249 -1174 c21 -21 24 -73 5 -96 -32 -39 -99 10 -99 74 0 21 3 42 7 46 11
11 66 -4 87 -24z m10415 -1115 c23 -25 46 -57 51 -71 19 -49 12 -213 -12 -301
-25 -91 -47 -115 -87 -94 -23 13 -27 26 -36 122 -6 59 -12 74 -55 134 -38 53
-50 79 -55 120 -6 46 -4 57 16 85 28 37 50 48 100 49 31 1 43 -6 78 -44z
m-2983 -1231 c4 -15 -1 -52 -12 -87 -28 -95 -119 -345 -149 -412 -15 -33 -46
-121 -69 -195 -46 -150 -59 -164 -88 -90 -32 85 -21 232 34 444 33 125 54 163
168 309 38 48 50 57 77 57 27 0 34 -5 39 -26z m177 -2062 c52 -54 97 -220 97
-358 0 -39 7 -90 15 -113 8 -23 17 -65 21 -93 10 -71 -8 -62 -78 42 -75 110
-118 200 -134 275 -14 63 -19 257 -7 268 16 17 61 5 86 -21z m1217 -1797 c0
-9 -25 -40 -55 -71 -47 -48 -57 -54 -75 -44 -31 17 -25 57 14 96 28 28 42 34
75 34 30 0 41 -4 41 -15z m-713 -377 c16 -13 3 -41 -61 -138 -72 -110 -110
-153 -335 -385 -197 -203 -415 -409 -495 -467 -40 -28 -80 -36 -91 -18 -18 29
16 77 178 255 234 259 681 714 731 746 40 26 47 26 73 7z m-1469 -1476 c10
-72 -114 -173 -167 -136 -29 21 -27 65 4 94 73 68 156 90 163 42z m-660 -1024
c5 -54 -13 -107 -57 -175 -42 -65 -85 -97 -144 -107 -50 -9 -67 5 -67 58 1 60
30 113 96 177 78 73 103 89 139 86 27 -2 30 -6 33 -39z"/>
<path d="M11101 24550 c-30 -44 -33 -55 -29 -100 5 -49 4 -51 -43 -95 -47 -44
-49 -48 -55 -113 l-6 -68 63 -34 c35 -18 100 -60 145 -92 l81 -58 153 0 152 0
-6 38 c-3 20 -8 71 -12 112 l-6 74 -149 181 c-138 168 -152 182 -194 193 -25
7 -49 12 -53 12 -4 0 -22 -22 -41 -50z"/>
<path d="M11413 9660 c-18 -4 -54 -22 -81 -39 -40 -25 -55 -43 -75 -89 l-24
-57 18 -115 c54 -340 233 -968 365 -1280 122 -290 230 -535 276 -625 145 -285
502 -910 596 -1045 25 -36 107 -148 183 -250 136 -184 137 -185 140 -245 2
-33 0 -79 -5 -102 -7 -37 -12 -43 -49 -58 -68 -27 -270 -34 -537 -19 -645 38
-1196 150 -1593 325 -214 94 -302 114 -446 105 -60 -4 -111 -14 -139 -26 -30
-14 -67 -20 -114 -20 -104 0 -370 45 -473 80 -102 34 -238 50 -445 50 -69 0
-206 7 -305 17 -153 14 -207 15 -362 5 -171 -11 -186 -13 -265 -46 -46 -19
-104 -40 -129 -46 -69 -17 -94 -55 -85 -129 8 -63 60 -153 214 -363 79 -109
89 -118 146 -143 33 -14 99 -54 146 -89 121 -89 273 -169 397 -210 98 -32 122
-36 263 -42 264 -11 575 34 828 120 l74 25 38 -19 c28 -14 45 -32 58 -63 17
-38 25 -45 66 -57 31 -9 74 -11 129 -7 106 8 299 -7 361 -29 46 -16 53 -16
125 1 72 16 84 16 211 0 693 -86 1063 -167 1600 -350 216 -74 472 -189 550
-248 l55 -41 160 -8 c147 -7 168 -6 253 14 l94 22 35 71 c20 38 64 133 98 211
l62 141 -14 89 c-13 82 -25 111 -158 379 -167 337 -244 536 -310 805 -54 220
-95 517 -95 695 0 164 34 529 60 647 l22 97 -27 85 -26 86 -97 75 c-53 41
-158 118 -232 172 l-135 99 -16 104 c-35 232 -112 396 -295 630 -107 138 -221
241 -490 442 -321 241 -458 302 -601 268z m-2639 -3696 c22 -22 6 -82 -36
-135 -34 -43 -130 -35 -177 13 -58 59 -36 95 74 122 80 19 120 19 139 0z
m2306 -239 c63 -20 124 -42 134 -47 33 -18 124 -36 266 -52 74 -9 182 -23 240
-32 58 -8 150 -18 205 -23 55 -5 141 -19 192 -31 96 -22 112 -35 98 -79 -10
-32 -64 -34 -222 -7 -82 14 -197 28 -258 31 -128 8 -363 63 -625 147 -139 45
-167 58 -179 80 -13 22 -13 29 -1 43 7 9 18 14 24 12 6 -2 63 -21 126 -42z
m2120 -100 c0 -69 -112 -141 -154 -99 -10 9 -15 23 -12 31 3 8 6 19 6 23 0 5
17 21 37 35 44 30 123 36 123 10z"/>
</g>
</svg>
