<?xml version="1.0" standalone="no"?>
<!DOCTYPE svg PUBLIC "-//W3C//DTD SVG 20010904//EN"
 "http://www.w3.org/TR/2001/REC-SVG-20010904/DTD/svg10.dtd">
<svg version="1.0" xmlns="http://www.w3.org/2000/svg"
 width="2500.000000pt" height="2500.000000pt" viewBox="0 0 2500.000000 2500.000000"
 preserveAspectRatio="xMidYMid meet">

<g transform="translate(0.000000,2500.000000) scale(0.100000,-0.100000)"
fill="#000000" stroke="none">
<path d="M370 12500 l0 -850 190 0 190 0 0 250 0 249 1193 3 1192 3 67 23
c129 44 233 147 279 276 11 33 25 100 31 150 13 114 4 342 -17 421 -47 181
-153 290 -305 314 -43 7 -529 11 -1442 11 l-1378 0 0 -850z m2653 496 c90 -33
110 -74 115 -242 5 -160 -10 -208 -74 -240 -38 -18 -73 -19 -1174 -19 l-1135
0 -3 245 c-1 134 0 250 3 257 7 20 2214 18 2268 -1z"/>
<path d="M4285 13340 c-173 -23 -302 -124 -352 -275 -15 -44 -18 -111 -21
-535 -2 -418 -1 -495 13 -558 32 -142 133 -249 280 -295 l70 -22 1215 0 1215
0 70 22 c132 41 230 137 272 263 16 50 18 99 18 560 0 469 -1 509 -19 563 -40
123 -135 215 -266 260 l-65 22 -1185 1 c-652 1 -1212 -2 -1245 -6z m2320 -360
c38 -19 55 -36 73 -70 22 -43 22 -50 22 -411 0 -363 0 -366 -23 -410 -17 -32
-37 -50 -72 -69 l-49 -25 -1056 0 -1055 0 -40 21 c-101 55 -104 68 -105 479 0
208 4 355 11 378 19 71 74 116 159 130 14 3 489 4 1055 3 l1031 -1 49 -25z"/>
<path d="M7485 13338 c-3 -7 -4 -389 -3 -848 l3 -835 193 -3 192 -2 0 250 0
250 1043 -2 1042 -3 55 -26 c30 -14 70 -39 89 -55 78 -66 144 -209 159 -344
l7 -65 189 -3 189 -2 -7 67 c-22 234 -111 412 -247 499 l-44 27 36 12 c108 38
198 110 235 190 23 49 24 57 24 346 l0 296 -31 61 c-52 106 -152 172 -284 192
-111 16 -2834 14 -2840 -2z m2716 -346 c47 -25 60 -63 66 -191 8 -171 -2 -247
-37 -283 l-28 -28 -1166 0 -1166 0 0 260 0 260 1153 -2 c937 -3 1157 -5 1178
-16z"/>
<path d="M11489 13340 c-210 -20 -344 -121 -410 -306 -29 -83 -37 -266 -16
-351 51 -196 182 -319 367 -343 44 -5 531 -10 1181 -10 1094 0 1107 0 1132
-20 33 -26 48 -74 49 -155 0 -77 -21 -122 -72 -147 -33 -17 -117 -18 -1327
-18 l-1293 0 0 -170 0 -170 1303 0 c745 0 1340 4 1392 10 240 25 378 180 401
450 19 225 -73 425 -229 499 -120 57 -64 55 -1304 61 l-1151 5 -27 25 c-41 38
-55 73 -55 137 0 67 21 117 63 147 28 21 31 21 1338 24 l1309 2 0 170 0 170
-1287 -1 c-709 -1 -1322 -5 -1364 -9z"/>
<path d="M14990 13340 c-126 -13 -223 -58 -283 -133 -46 -56 -64 -93 -85 -174
-15 -60 -17 -124 -17 -538 0 -467 0 -470 23 -534 52 -143 146 -237 283 -282
l74 -24 1310 0 1310 0 3 167 2 168 -1291 2 -1291 3 -19 24 c-18 22 -19 45 -19
478 l0 455 29 29 29 29 1281 0 1281 0 -2 168 -3 167 -1270 1 c-698 1 -1304 -2
-1345 -6z"/>
<path d="M18025 13338 c-3 -7 -4 -389 -3 -848 l3 -835 193 -3 192 -2 0 350 0
350 1120 0 1120 0 2 -347 3 -348 198 -3 197 -2 0 850 0 850 -197 -2 -198 -3
-3 -327 -2 -328 -1120 0 -1120 0 0 330 0 330 -190 0 c-143 0 -192 -3 -195 -12z"/>
<path d="M21460 12500 l0 -850 1585 0 1585 0 0 170 0 170 -1390 0 -1390 0 0
175 0 175 1390 0 1390 0 0 170 0 170 -1390 0 -1390 0 0 165 0 165 1390 0 1390
0 0 170 0 170 -1585 0 -1585 0 0 -850z"/>
</g>
</svg>
